PathFileType	4	(X/Y/Z)	OpenSim_Sub03_CSStiffKnee_Accel.trc
DataRate	CameraRate	NumFrames	NumMarkers	Units	OrigDataRate	OrigDataStartFrame	OrigNumFrames
100	100	13	8	m	100	455	3637
Frame#	Time	torso_imu_offset_imu	pelvis_imu_offset_imu	tibia_r_imu_offset_imu	femur_r_imu_offset_imu	tibia_l_imu_offset_imu	femur_l_imu_offset_imu	toes_r_imu_offset_imu	toes_l_imu_offset_imu
				X1	Y1	Z1	X2	Y2	Z2	X3	Y3	Z3	X4	Y4	Z4	X5	Y5	Z5	X6	Y6	Z6	X7	Y7	Z7	X8		Y8	Z8	

455	4.54000000	8.85432500	1.96333400	5.37399200	9.27123400	-1.26860500	1.63484900	9.60926800	1.66627100	0.84609600	8.65846100	-3.85671000	2.50983200	10.12657500	-1.81457700	-0.82147000	9.56413800	0.28039100	-2.24784700	13.75301200	0.59351900	4.97752000	5.74214200	0.44878400	10.60306900
456	4.55000000	8.85832400	1.93563400	5.41907600	9.34121800	-1.16026800	1.68354100	9.54626000	1.96530800	1.30024600	8.91803600	-5.01993400	2.47676600	10.05076700	-0.75248200	-0.66623000	9.27603300	0.43821200	-2.29356900	13.97775400	1.20687900	3.96979400	6.02309800	0.43333400	10.53347600
457	4.56000000	8.96402800	1.94078700	5.48401100	9.40271800	-1.15938200	1.82708900	9.67093300	2.68024300	0.89419100	8.60999800	-5.60018500	2.37355800	9.97901100	-0.44977800	-0.70530400	9.31069800	0.49086200	-2.15100800	13.31850400	1.44732400	2.57861000	5.23105700	0.77796400	10.89465200
458	4.57000000	9.09898200	1.94950900	5.50507400	9.47138100	-1.29399400	2.04267800	9.37252700	2.28031200	0.92365900	8.52863100	-5.63765400	2.13369800	9.93497100	-0.02107300	-0.46617200	9.52192000	0.48323100	-2.21729400	13.37354000	1.99779900	1.65923800	5.37354500	0.64574300	10.85290400
459	4.58000000	9.15528000	1.98392700	5.59563900	9.33006400	-1.46944300	2.25001400	9.25188500	1.53634800	0.73066500	8.36102300	-5.50734800	2.02324100	10.18657900	0.43877700	-0.61549700	9.70144700	0.37849500	-1.94788500	14.29806400	2.25460800	0.74791800	5.47593200	0.73625700	11.02542400
460	4.59000000	9.22145900	2.03258700	5.53791200	9.17838500	-1.65450800	2.23233000	8.66025300	1.31409000	0.87000800	8.52257300	-5.44669200	2.28740400	10.28884700	0.72530100	-0.40487600	9.67676400	0.24033700	-2.01952000	14.17842600	2.64902200	-0.75814900	5.71339400	0.70804400	10.83795900
461	4.60000000	9.22278900	2.14262500	5.61296100	9.18700300	-1.77576100	2.03168600	8.10922300	1.28996300	0.76450300	8.99033500	-5.52742200	2.68987500	10.12069300	0.79006100	-0.71025300	9.38802500	0.26004100	-2.18738000	13.66163200	3.29667500	-2.02738500	5.23758900	0.77037200	11.05810800
462	4.61000000	9.23567900	2.17987200	5.41617500	9.26794900	-1.74537300	1.86403800	8.37830800	1.28145100	0.45325700	9.40390200	-5.50814800	3.27156900	10.11463200	0.13879000	-0.66146500	9.27526800	0.14283400	-2.18979900	13.58415200	3.22959700	-2.49986000	5.45291900	0.94960700	11.05190100
463	4.62000000	9.22341300	2.16201700	5.52782100	9.53777600	-1.76201700	1.75480300	8.68080400	1.50649400	0.21755100	9.59578100	-5.00484700	3.84455000	10.20903500	-0.77042100	-1.09394900	9.64188400	0.09562300	-2.31952000	13.48468100	2.97650500	-2.32266200	5.79985900	0.85367000	10.84674200
464	4.63000000	9.25363600	2.18337800	5.52643800	9.62857500	-1.63355100	1.59429900	8.73868500	1.79039000	-0.07597900	9.02854800	-4.23813500	4.06442500	10.29148100	-1.56910600	-1.03129500	9.49259500	0.13304900	-2.44940400	14.23932800	2.34701800	-4.44445700	5.89727700	0.61186700	10.73946400
465	4.64000000	9.43357000	2.02311300	5.49831200	9.79651500	-1.50768800	1.43743600	8.65089200	1.21469200	0.26748700	8.79482200	-3.68439200	4.24857200	10.35005500	-1.83844600	-1.09300200	9.33956400	0.03176600	-2.40706700	14.64089200	1.62051600	-6.01757900	5.74204700	0.66500800	10.98498200
466	4.65000000	9.58254900	1.97372900	5.59055800	9.97337500	-1.49473200	1.34757200	8.83224200	1.08771500	-0.23203400	8.75221900	-3.07177000	4.44354200	10.41762800	-1.91902600	-0.69311000	9.61843200	-0.30260300	-2.31754700	15.61827000	2.43720000	-8.29021600	5.57186400	0.59092600	11.07448900
467	4.66000000	9.75188200	1.96027300	5.55976900	10.18811400	-1.61629600	1.34909300	10.07487300	0.94271300	-0.15568300	8.97844900	-2.82885100	4.87859100	10.42711200	-1.52387500	-0.67428800	9.70724800	-0.52849900	-2.42432100	10.18322100	2.24675000	6.51011700	6.00515700	0.48027700	10.86769200
